:FULLY-SPECIFIED
:DEGREES
2014
root 0.462072 15.6273 -2.36523 4360.23 -97.7429 -4357.99
lowerback 5.4677 0.938289 -9.08585
upperback -1.52405 0.588274 0.203059
thorax -4.78159 0.55463 5.26591
lowerneck -16.5808 1.63099 1.56363
upperneck 18.6467 2.48758 -3.48415
head 8.61971 0.864036 -1.13943
rclavicle -1.59028e-015 1.59028e-014
rhumerus -38.1889 -22.5306 -73.8789
rradius 13.5512
rwrist 22.9608
rhand -29.1257 -17.8601
rfingers 7.12502
rthumb -2.47308 -47.8255
lclavicle -1.59028e-015 1.59028e-014
lhumerus -19.5025 -13.9778 93.23
lradius 35.0036
lwrist 11.0022
lhand -33.1873 15.5181
lfingers 7.12502
lthumb -6.39499 45.4016
rfemur -31.0195 4.30431 16.0306
rtibia 37.1349
rfoot -16.7009 -21.8616
rtoes -11.748
lfemur 1.02628 -5.10749 -32.0824
ltibia 15.94
lfoot -13.7902 8.07509
ltoes -10.8653
2015
root 0.479934 15.6373 -2.37417 4361.09 -97.7451 -4358.61
lowerback 5.34198 0.954086 -9.12117
upperback -1.58415 0.614382 0.164353
thorax -4.77813 0.569499 5.24267
lowerneck -16.614 1.57407 1.55841
upperneck 18.6151 2.40829 -3.47405
head 8.61249 0.828067 -1.14454
rclavicle -4.77083e-015 -1.55052e-014
rhumerus -37.9105 -23.0353 -73.7719
rradius 13.412
rwrist 24.0175
rhand -29.2436 -17.8781
rfingers 7.12502
rthumb -2.58697 -47.8421
lclavicle -4.77083e-015 -1.55052e-014
lhumerus -19.5841 -14.0616 93.2728
lradius 35.1606
lwrist 10.8963
lhand -33.2619 15.5775
lfingers 7.12502
lthumb -6.46702 45.4587
rfemur -31.1185 5.08219 15.7021
rtibia 34.5029
rfoot -16.4593 -21.0245
rtoes -12.5118
lfemur 2.04572 -4.94074 -32.1321
ltibia 14.5741
lfoot -13.4132 7.74586
ltoes -11.3787
2016
root 0.496319 15.6478 -2.38436 4361.89 -97.7215 -4359.16
lowerback 5.16322 0.970327 -9.12448
upperback -1.61243 0.651622 0.139754
thorax -4.71201 0.58544 5.2158
lowerneck -16.5734 1.52302 1.48331
upperneck 18.4849 2.3436 -3.41539
head 8.55753 0.801421 -1.1196
rclavicle 3.97569e-015 8.94531e-015
rhumerus -37.492 -23.1013 -74.0249
rradius 13.4497
rwrist 23.9851
rhand -29.3509 -17.7495
rfingers 7.12502
rthumb -2.69059 -47.7123
lclavicle 3.97569e-015 8.94531e-015
lhumerus -19.6329 -14.035 93.3294
lradius 35.24
lwrist 11.0116
lhand -33.2274 15.4293
lfingers 7.12502
lthumb -6.43376 45.3116
rfemur -31.1827 5.85897 15.368
rtibia 31.9304
rfoot -16.3895 -20.1241
rtoes -12.9011
lfemur 3.12112 -4.83035 -32.1494
ltibia 13.1053
lfoot -12.9217 7.39625
ltoes -11.8705
2017
root 0.510929 15.6566 -2.39611 4362.9 -97.6815 -4359.89
lowerback 4.97021 0.955836 -9.15712
upperback -1.67352 0.64565 0.11794
thorax -4.66627 0.582824 5.2126
lowerneck -16.6109 1.48446 1.50529
upperneck 18.4449 2.29288 -3.45389
head 8.55008 0.775642 -1.14205
rclavicle -2.3059e-014 5.36719e-015
rhumerus -36.9807 -23.0215 -74.399
rradius 13.441
rwrist 23.977
rhand -29.4213 -17.6949
rfingers 7.12502
rthumb -2.75858 -47.6568
lclavicle -2.3059e-014 5.36719e-015
lhumerus -19.8026 -14.0863 93.4073
lradius 35.3412
lwrist 11.1756
lhand -33.2734 15.4839
lfingers 7.12502
lthumb -6.47818 45.3649
rfemur -31.2734 6.8878 14.9263
rtibia 29.5117
rfoot -16.6446 -19.6565
rtoes -13.4118
lfemur 4.22504 -4.92256 -32.1946
ltibia 11.5682
lfoot -12.3963 7.22214
ltoes -12.7145
2018
root 0.527839 15.6696 -2.40885 4364.02 -97.5675 -4360.71
lowerback 4.77683 0.945465 -9.11833
upperback -1.72504 0.651123 0.102072
thorax -4.61057 0.583244 5.17443
lowerneck -16.6399 1.41331 1.44545
upperneck 18.3641 2.20614 -3.43651
head 8.52463 0.733908 -1.13626
rclavicle -1.98785e-015 -2.18663e-015
rhumerus -36.3782 -23.0738 -74.7586
rradius 13.4681
rwrist 23.8518
rhand -29.3417 -17.8369
rfingers 7.12502
rthumb -2.68171 -47.7998
lclavicle -1.98785e-015 -2.18663e-015
lhumerus -19.9109 -14.0305 93.5114
lradius 35.2907
lwrist 11.1818
lhand -33.3188 15.4981
lfingers 7.12502
lthumb -6.52195 45.3777
rfemur -31.4669 8.22184 14.3747
rtibia 27.3493
rfoot -16.8748 -19.8615
rtoes -14.4037
lfemur 5.34089 -4.9035 -32.1441
ltibia 9.92898
lfoot -11.727 6.87699
ltoes -13.9255
2019
root 0.53965 15.678 -2.42208 4364.68 -97.4816 -4361.11
lowerback 4.59838 0.933681 -9.08583
upperback -1.8086 0.652413 0.116332
thorax -4.59715 0.585324 5.17181
lowerneck -16.625 1.37342 1.47232
upperneck 18.3684 2.16464 -3.53508
head 8.52385 0.705571 -1.17917
rclavicle 1.23246e-014 -8.34896e-015
rhumerus -35.8402 -22.4324 -75.4571
rradius 13.6844
rwrist 23.1959
rhand -29.4707 -17.8027
rfingers 7.12502
rthumb -2.80627 -47.764
lclavicle 1.23246e-014 -8.34896e-015
lhumerus -20.221 -14.004 93.6447
lradius 35.2308
lwrist 10.977
lhand -33.3683 15.3593
lfingers 7.12502
lthumb -6.56974 45.2374
rfemur -31.6459 9.63134 13.82
rtibia 25.4752
rfoot -17.231 -20.3203
rtoes -15.3871
lfemur 6.4981 -4.81657 -32.0835
ltibia 8.32048
lfoot -11.1564 6.55195
ltoes -14.4247
2020
root 0.552594 15.6858 -2.43746 4365.81 -97.3502 -4362.01
lowerback 4.42706 0.936173 -8.99919
upperback -1.83337 0.675269 0.0693746
thorax -4.52691 0.590788 5.07241
lowerneck -16.6731 1.29356 1.44542
upperneck 18.3166 2.05006 -3.47975
head 8.51075 0.656673 -1.16947
rclavicle 5.56597e-015 -2.38542e-015
rhumerus -35.1901 -21.8446 -76.2694
rradius 13.9615
rwrist 22.3899
rhand -29.4141 -17.8594
rfingers 7.12502
rthumb -2.75159 -47.8214
lclavicle 5.56597e-015 -2.38542e-015
lhumerus -20.4284 -14.048 93.7642
lradius 35.0857
lwrist 11.0805
lhand -33.5341 15.2264
lfingers 7.12502
lthumb -6.72979 45.0995
rfemur -31.8654 11.1129 13.1845
rtibia 23.9752
rfoot -18.0124 -21.1576
rtoes -15.4162
lfemur 7.7538 -4.8015 -32.0097
ltibia 6.58076
lfoot -10.4382 6.12161
ltoes -14.9776
2021
root 0.564788 15.6945 -2.45398 4367.22 -97.2991 -4363.17
lowerback 4.27643 0.928672 -9.06081
upperback -1.9043 0.671985 0.0546431
thorax -4.51681 0.59224 5.09254
lowerneck -16.6327 1.24729 1.43274
upperneck 18.2555 1.9948 -3.5089
head 8.48153 0.627968 -1.18364
rclavicle -1.39149e-014 2.92213e-014
rhumerus -34.5645 -21.0061 -77.1178
rradius 14.2775
rwrist 21.344
rhand -29.4923 -17.6637
rfingers 7.12502
rthumb -2.82717 -47.6247
lclavicle -1.39149e-014 2.92213e-014
lhumerus -20.7251 -14.0054 93.9211
lradius 34.8981
lwrist 11.1135
lhand -33.4241 15.3722
lfingers 7.12502
lthumb -6.62366 45.2486
rfemur -32.1631 12.4259 12.5203
rtibia 22.8763
rfoot -18.7895 -22.1009
rtoes -15.181
lfemur 9.08983 -4.75905 -32.0079
ltibia 4.64837
lfoot -9.64659 5.67141
ltoes -15.2799
2022
root 0.573721 15.6955 -2.47253 4368.38 -97.1933 -4364.15
lowerback 4.09306 0.923524 -9.05319
upperback -1.87563 0.686639 0.0593729
thorax -4.38427 0.592638 5.09355
lowerneck -16.7007 1.17719 1.35089
upperneck 18.178 1.91438 -3.48572
head 8.46431 0.587979 -1.17133
rclavicle 2.78299e-015 -9.93923e-015
rhumerus -33.7304 -19.8843 -78.1475
rradius 14.6344
rwrist 19.9798
rhand -29.4849 -17.8174
rfingers 7.12502
rthumb -2.81999 -47.7785
lclavicle 2.78299e-015 -9.93923e-015
lhumerus -20.9348 -14.0013 94.1017
lradius 34.6052
lwrist 11.1353
lhand -33.5317 15.3097
lfingers 7.12502
lthumb -6.72747 45.1828
rfemur -32.3672 13.2411 12.1678
rtibia 22.1424
rfoot -19.5813 -22.8435
rtoes -15.4899
lfemur 10.8362 -4.72169 -31.9592
ltibia 2.17506
lfoot -8.55243 5.29906
ltoes -15.9449
2023
root 0.584265 15.6943 -2.49008 4369.74 -97.1333 -4365.37
lowerback 4.02428 0.945704 -9.03645
upperback -1.91084 0.720006 0.0160802
thorax -4.38659 0.608913 5.03602
lowerneck -16.7134 1.11751 1.34296
upperneck 18.1876 1.83618 -3.49385
head 8.46773 0.549575 -1.18229
rclavicle 4.37326e-015 4.57205e-015
rhumerus -33.0952 -18.8244 -79.1342
rradius 15.119
rwrist 18.5864
rhand -29.5626 -17.8797
rfingers 7.12502
rthumb -2.89501 -47.8398
lclavicle 4.37326e-015 4.57205e-015
lhumerus -21.2652 -13.9355 94.2788
lradius 34.2594
lwrist 11.1846
lhand -33.5217 15.1741
lfingers 7.12502
lthumb -6.71785 45.0475
rfemur -32.525 13.7339 11.9234
rtibia 21.7099
rfoot -20.2132 -23.4488
rtoes -15.5211
lfemur 12.4437 -4.67116 -31.9539
ltibia 1.59028e-014
lfoot -7.56185 4.89948
ltoes -16.4543
2024
root 0.593667 15.6916 -2.50814 4370.52 -97.095 -4365.98
lowerback 3.92614 0.962423 -9.02111
upperback -1.95287 0.750039 -0.000961854
thorax -4.37924 0.623921 5.00751
lowerneck -16.6907 1.08269 1.37178
upperneck 18.1362 1.78942 -3.53802
head 8.44569 0.525967 -1.2073
rclavicle 3.18055e-015 -9.74045e-015
rhumerus -32.457 -17.4548 -80.2124
rradius 15.6611
rwrist 17.0101
rhand -29.6401 -17.9825
rfingers 7.12502
rthumb -2.96991 -47.9416
lclavicle 3.18055e-015 -9.74045e-015
lhumerus -21.637 -13.6912 94.4294
lradius 33.8375
lwrist 10.9676
lhand -33.5875 15.1734
lfingers 7.12502
lthumb -6.78142 45.0448
rfemur -32.6537 13.7838 11.9483
rtibia 21.5489
rfoot -20.7216 -23.6379
rtoes -15.0485
lfemur 12.831 -4.55273 -31.9217
ltibia 6.36111e-015
lfoot -7.47465 4.59627
ltoes -16.6738
2025
root 0.60577 15.6877 -2.52749 4371.63 -97.0587 -4366.96
lowerback 3.92276 0.999356 -8.99527
upperback -1.98738 0.797314 -0.0356776
thorax -4.41998 0.648679 4.95227
lowerneck -16.7378 1.01126 1.30163
upperneck 18.1359 1.70397 -3.51116
head 8.45089 0.483497 -1.1969
rclavicle -1.15295e-014 1.19271e-014
rhumerus -31.8261 -16.3859 -81.1071
rradius 16.1981
rwrist 15.803
rhand -29.6197 -18.0669
rfingers 7.12502
rthumb -2.95017 -48.0263
lclavicle -1.15295e-014 1.19271e-014
lhumerus -21.9659 -13.4504 94.6035
lradius 33.3096
lwrist 10.8671
lhand -33.5085 15.1849
lfingers 7.12502
lthumb -6.70512 45.0587
rfemur -32.666 13.4187 12.1693
rtibia 21.6015
rfoot -20.6441 -23.702
rtoes -15.6137
lfemur 13.2365 -4.46315 -31.903
ltibia 6.36111e-014
lfoot -7.39311 4.29581
ltoes -17.0732
